name rise30.8019peak61.5557fall86.2505.mot
datacolumns 19
datarows 17
range 5.49664600000000 5.52331800000000
endheader
time	ground_force1_vx	ground_force1_vy	ground_force1_vz	ground_force1_px	ground_force1_py	ground_force1_pz	ground_force2_vx	ground_force2_vy	ground_force2_vz	ground_force2_px	ground_force2_py	ground_force2_pz	ground_torque1_x	ground_torque1_y	ground_torque1_z	ground_torque2_x	ground_torque2_y	ground_torque2_z	
5.49664600000000	-43.97172700000000	780.17510700000003	44.95707200000000	0.02242700000000	0.00000000000000	0.10982800000000	-3.24296800000000	20.63138900000000	6.22234900000000	0.00000000000000	0.00000000000000	0.00000000000000	0.00000000000000	12.92083500000000	0.00000000000000	0.00000000000000	1.92190600000000	0.00000000000000	
5.49831300000000	-44.11263800000000	778.71540300000004	44.76912700000000	0.02188000000000	0.00000000000000	0.10976700000000	-3.95097500000000	26.07439200000000	7.68708900000000	0.29049200000000	0.00000000000000	-0.04311100000000	0.00000000000000	12.84809300000000	0.00000000000000	0.00000000000000	4.44222300000000	0.00000000000000	
5.49997800000000	-44.27323000000000	777.19306200000005	44.56589800000000	0.02133200000000	0.00000000000000	0.10970200000000	-4.65067900000000	31.79714300000000	9.17343700000000	0.29441400000000	0.00000000000000	-0.04380600000000	0.00000000000000	12.77976000000000	0.00000000000000	0.00000000000000	5.34275700000000	0.00000000000000	
5.50164900000000	-44.45427900000000	775.60804499999995	44.34737300000000	0.02078500000000	0.00000000000000	0.10963200000000	-5.31751000000000	37.67153700000000	10.63736200000000	0.29797400000000	0.00000000000000	-0.04445800000000	0.00000000000000	12.71605300000000	0.00000000000000	0.00000000000000	6.24027200000000	0.00000000000000	
5.50331600000000	-44.65652000000000	773.96025999999995	44.11354700000000	0.02023700000000	0.00000000000000	0.10955800000000	-5.92903700000000	43.57449200000000	12.03793300000000	0.30121900000000	0.00000000000000	-0.04507300000000	0.00000000000000	12.65717800000000	0.00000000000000	0.00000000000000	7.10979400000000	0.00000000000000	
5.50498500000000	-44.88065000000000	772.24955199999999	43.86443200000000	0.01968900000000	0.00000000000000	0.10948000000000	-6.46644200000000	49.39695000000000	13.34011100000000	0.30418700000000	0.00000000000000	-0.04565600000000	0.00000000000000	12.60333300000000	0.00000000000000	0.00000000000000	7.92949700000000	0.00000000000000	
5.50664800000000	-45.12731800000000	770.47569999999996	43.60005200000000	0.01914000000000	0.00000000000000	0.10939700000000	-6.91554500000000	55.05065700000000	14.51672900000000	0.30690900000000	0.00000000000000	-0.04621300000000	0.00000000000000	12.55470200000000	0.00000000000000	0.00000000000000	8.68200700000000	0.00000000000000	
5.50831500000000	-45.39712700000000	768.63841200000002	43.32044400000000	0.01859100000000	0.00000000000000	0.10930900000000	-7.26730600000000	60.47228800000000	15.54956500000000	0.30941300000000	0.00000000000000	-0.04674500000000	0.00000000000000	12.51146000000000	0.00000000000000	0.00000000000000	9.35516300000000	0.00000000000000	
5.50998300000000	-45.69062700000000	766.73731899999996	43.02565700000000	0.01804100000000	0.00000000000000	0.10921700000000	-7.51783200000000	65.62488999999999	16.42950600000000	0.31172000000000	0.00000000000000	-0.04725700000000	0.00000000000000	12.47376800000000	0.00000000000000	0.00000000000000	9.94222900000000	0.00000000000000	
5.51165300000000	-46.00831500000000	764.77197200000001	42.71575300000000	0.01749000000000	0.00000000000000	0.10912000000000	-7.66797200000000	70.49691199999999	17.15595000000000	0.31384900000000	0.00000000000000	-0.04775200000000	0.00000000000000	12.44177300000000	0.00000000000000	0.00000000000000	10.44162400000000	0.00000000000000	
5.51331200000000	-46.35063000000000	762.74184000000002	42.39080600000000	0.01693700000000	0.00000000000000	0.10901900000000	-7.72257900000000	75.09932400000000	17.73560200000000	0.31581700000000	0.00000000000000	-0.04823100000000	0.00000000000000	12.41561200000000	0.00000000000000	0.00000000000000	10.85628200000000	0.00000000000000	
5.51498000000000	-46.71795000000000	760.64630099999999	42.05090400000000	0.01638300000000	0.00000000000000	0.10891300000000	-7.68958500000000	79.46137000000000	18.18087800000000	0.31763700000000	0.00000000000000	-0.04869700000000	0.00000000000000	12.39540300000000	0.00000000000000	0.00000000000000	11.19272900000000	0.00000000000000	
5.51664900000000	-47.11059200000000	758.48464500000000	41.69614400000000	0.01582700000000	0.00000000000000	0.10880200000000	-7.57897700000000	83.62555999999999	18.50811400000000	0.31932000000000	0.00000000000000	-0.04915100000000	0.00000000000000	12.38125400000000	0.00000000000000	0.00000000000000	11.46003800000000	0.00000000000000	
5.51831600000000	-47.52880200000000	756.25606600000003	41.32663700000000	0.01526800000000	0.00000000000000	0.10868800000000	-7.40178200000000	87.64244700000000	18.73576500000000	0.32087700000000	0.00000000000000	-0.04959500000000	0.00000000000000	12.37325400000000	0.00000000000000	0.00000000000000	11.66874300000000	0.00000000000000	
5.51998500000000	-47.97276200000000	753.95966599999997	40.94250500000000	0.01470700000000	0.00000000000000	0.10856800000000	-7.16914700000000	91.56564100000000	18.88273800000000	0.32231700000000	0.00000000000000	-0.05003000000000	0.00000000000000	12.37147900000000	0.00000000000000	0.00000000000000	11.82982600000000	0.00000000000000	
5.52164500000000	-48.44257700000000	751.59444599999995	40.54388500000000	0.01414300000000	0.00000000000000	0.10844500000000	-6.89156500000000	95.44743200000001	18.96697700000000	0.32364500000000	0.00000000000000	-0.05045700000000	0.00000000000000	12.37598700000000	0.00000000000000	0.00000000000000	11.95383500000000	0.00000000000000	
5.52331800000000	-48.93827900000000	749.15930900000001	40.13092100000000	0.01357500000000	0.00000000000000	0.10831700000000	-6.57828000000000	99.33524199999999	19.00435300000000	0.32487000000000	0.00000000000000	-0.05087800000000	0.00000000000000	12.38682100000000	0.00000000000000	0.00000000000000	12.05018800000000	0.00000000000000	
